<svg xmlns="http://www.w3.org/2000/svg" xmlns:xlink="http://www.w3.org/1999/xlink" viewBox="0 0 118.511 205" overflow="visible"><g><g transform="translate(21.511 114)"><path d="M 0 0.651 L 97 0.651 L 97 91 L 0 91 Z" fill="transparent"></path><path d="M 28.368 33.71 C 30.029 32.685 31.215 31.041 31.664 29.14 C 32.113 27.239 31.788 25.237 30.762 23.576 C 28.62 20.114 24.084 19.043 20.624 21.181 C 18.963 22.206 17.778 23.851 17.329 25.752 C 16.88 27.653 17.205 29.656 18.232 31.317 C 20.374 34.777 24.909 35.847 28.368 33.71 Z" fill="rgb(209, 230, 129)"></path><path d="M 83.532 84.705 L 59.055 39.07 C 58.873 38.746 58.652 38.445 58.397 38.175 L 21.68 1.133 C 20.184 -0.371 17.756 -0.379 16.25 1.115 C 15.528 1.832 15.12 2.807 15.117 3.826 C 15.113 4.844 15.515 5.822 16.232 6.544 L 37.306 27.815 L 31.165 34.412 C 30.508 35.123 30.142 36.056 30.141 37.025 L 30.141 52.339 C 30.145 54.445 31.84 56.157 33.943 56.178 L 41.967 56.268 L 38.969 63.76 L 28.423 84.795 C 27.825 85.986 27.888 87.403 28.589 88.536 C 29.291 89.669 30.529 90.356 31.86 90.35 C 33.312 90.345 34.639 89.527 35.296 88.23 L 45.641 67.525 L 55.82 56.597 L 65.691 67.672 L 76.767 88.321 C 77.245 89.222 78.061 89.895 79.036 90.19 C 80.01 90.485 81.062 90.379 81.958 89.894 C 83.819 88.892 84.521 86.572 83.53 84.703 Z M 37.798 43.2 L 42.569 48.592 L 37.797 48.536 L 37.797 43.201 Z" fill="rgb(209, 230, 129)"></path></g><g transform="translate(10.011 53.5) rotate(15 48 45)"><path d="M 0 0.669 L 96 0.669 L 96 90 L 0 90 Z" fill="transparent"></path><path d="M 79.557 21.699 C 79.29 21.267 78.863 20.96 78.37 20.844 C 77.876 20.729 77.357 20.814 76.926 21.083 L 69.387 25.849 L 53.953 24.618 L 37.294 16.831 C 37.268 16.805 37.217 16.805 37.192 16.78 C 35.545 16.075 33.711 15.94 31.979 16.396 C 30.473 16.81 29.116 17.645 28.069 18.803 L 27.967 18.905 C 27.941 18.957 27.941 18.983 27.916 19.008 C 27.891 19.034 27.891 19.059 27.865 19.085 C 27.838 19.137 27.813 19.162 27.762 19.213 C 27.711 19.264 27.686 19.316 27.66 19.367 C 27.635 19.393 27.61 19.418 27.61 19.469 C 27.552 19.56 27.501 19.654 27.456 19.752 C 27.456 19.777 27.43 19.802 27.43 19.828 C 27.405 19.906 27.354 19.982 27.327 20.058 C 27.302 20.084 27.302 20.136 27.302 20.161 C 27.276 20.238 27.251 20.288 27.251 20.366 C 27.251 20.417 27.226 20.443 27.226 20.495 C 27.2 20.57 27.2 20.622 27.175 20.698 C 27.175 20.751 27.149 20.776 27.149 20.827 C 27.149 20.905 27.124 20.955 27.124 21.032 L 27.124 21.135 L 25.821 42.09 C 25.751 43.146 26.153 44.178 26.919 44.908 L 28.989 46.906 L 28.197 65.249 L 18.104 79.954 C 17.563 80.739 17.356 81.706 17.528 82.643 C 17.701 83.58 18.238 84.41 19.023 84.95 C 19.636 85.386 20.353 85.59 21.042 85.59 C 22.193 85.59 23.29 85.051 23.981 84.028 L 34.662 68.476 C 34.662 68.451 34.687 68.451 34.687 68.424 C 34.738 68.349 34.79 68.244 34.841 68.17 C 34.866 68.143 34.866 68.117 34.892 68.065 C 34.943 67.99 34.968 67.885 35.019 67.811 C 35.046 67.784 35.046 67.758 35.071 67.706 C 35.096 67.604 35.146 67.503 35.173 67.399 C 35.173 67.374 35.198 67.349 35.198 67.323 L 35.274 66.939 L 37.446 51.415 L 47.233 54.693 L 43.35 68.398 C 42.812 70.295 43.912 72.293 45.801 72.831 C 47.701 73.369 49.678 72.27 50.224 70.371 L 55.052 53.361 C 55.104 53.156 55.155 52.951 55.18 52.746 L 55.18 52.208 C 55.18 52.131 55.18 52.028 55.155 51.952 L 55.155 51.876 C 55.151 51.788 55.133 51.701 55.104 51.619 C 55.104 51.593 55.079 51.568 55.079 51.542 L 55.001 51.312 C 55.001 51.261 54.976 51.234 54.95 51.183 C 54.925 51.107 54.899 51.055 54.874 50.978 L 54.798 50.824 C 54.772 50.774 54.746 50.723 54.72 50.672 C 54.695 50.615 54.661 50.563 54.618 50.518 C 54.599 50.472 54.573 50.428 54.542 50.389 C 54.517 50.338 54.464 50.286 54.439 50.235 C 54.414 50.184 54.388 50.159 54.337 50.108 C 54.308 50.053 54.264 50.008 54.209 49.979 C 54.183 49.929 54.134 49.903 54.107 49.851 C 54.056 49.8 54.031 49.775 53.98 49.749 C 53.928 49.697 53.877 49.671 53.852 49.62 C 53.826 49.595 53.775 49.57 53.725 49.519 C 53.672 49.466 53.621 49.441 53.545 49.39 C 53.494 49.365 53.469 49.339 53.417 49.314 C 53.366 49.288 53.29 49.236 53.237 49.211 C 53.213 49.211 53.213 49.185 53.188 49.185 L 39.516 42.114 L 41.05 26.564 L 51.424 31.432 C 51.807 31.611 52.216 31.713 52.65 31.765 L 65.555 32.79 L 64.047 67.477 L 56.663 67.477 C 55.615 67.477 54.745 68.348 54.745 69.397 L 54.745 76.418 L 42.48 76.418 C 41.434 76.418 40.564 77.288 40.564 78.339 L 40.564 85.512 L 28.069 85.512 C 27.022 85.512 26.152 86.384 26.152 87.434 C 26.152 88.484 27.021 89.355 28.069 89.355 L 42.558 89.355 C 43.604 89.355 44.474 88.484 44.474 87.434 L 44.474 80.261 L 56.739 80.261 C 57.786 80.261 58.656 79.391 58.656 78.341 L 58.656 71.321 L 65.965 71.321 C 66.985 71.321 67.828 70.501 67.881 69.477 L 69.465 33.072 C 71.395 33.156 73.045 31.694 73.196 29.767 C 73.238 29.227 73.159 28.685 72.966 28.179 L 78.995 24.388 C 79.869 23.785 80.117 22.602 79.559 21.699 Z M 39.262 15.115 C 41.263 15.113 43.182 14.316 44.596 12.898 C 46.009 11.481 46.802 9.559 46.8 7.557 C 46.802 5.555 46.009 3.634 44.595 2.216 C 43.182 0.799 41.263 0.002 39.262 0 C 37.261 0.002 35.343 0.799 33.929 2.216 C 32.516 3.634 31.722 5.555 31.724 7.557 C 31.722 9.559 32.516 11.48 33.929 12.897 C 35.343 14.315 37.261 15.112 39.262 15.114 Z" fill="rgb(209, 230, 129)"></path></g><path d="M 2.748 25.936 L 60.967 6.512 C 63.089 5.786 65.392 6.966 66.114 9.098 C 66.837 11.232 65.663 13.546 63.54 14.272 L 41.229 21.715 C 40.958 21.805 40.867 22.169 41.048 22.396 C 42.657 24.017 44.518 25.366 46.558 26.39 L 46.603 26.39 C 48.094 27.161 49.765 27.48 51.436 27.48 L 68.87 27.48 L 68.87 10.506 C 68.87 8.327 70.496 6.42 72.663 6.284 C 73.787 6.215 74.89 6.614 75.711 7.388 C 76.532 8.161 76.998 9.24 77 10.37 L 77 32.063 C 77 32.153 77 32.198 76.955 32.29 C 76.955 32.335 76.91 32.425 76.91 32.47 C 76.91 32.517 76.865 32.607 76.865 32.654 C 76.865 32.699 76.82 32.789 76.82 32.834 C 76.82 32.879 76.775 32.971 76.775 33.016 C 76.729 33.061 76.729 33.151 76.684 33.198 C 76.639 33.243 76.639 33.288 76.594 33.333 C 76.549 33.378 76.504 33.47 76.504 33.515 C 76.459 33.56 76.459 33.605 76.413 33.651 C 76.368 33.696 76.323 33.787 76.278 33.832 C 76.233 33.878 76.188 33.923 76.188 33.968 L 76.051 34.105 L 75.917 34.24 L 75.78 34.377 L 75.645 34.512 L 75.51 34.649 C 75.465 34.694 75.419 34.739 75.329 34.786 C 75.284 34.831 75.239 34.876 75.194 34.876 C 75.149 34.921 75.058 34.966 75.013 34.966 C 74.968 35.013 74.878 35.013 74.833 35.058 C 74.787 35.103 74.697 35.103 74.652 35.148 C 74.607 35.193 74.517 35.193 74.47 35.24 C 74.425 35.24 74.381 35.285 74.291 35.285 C 74.201 35.33 74.154 35.33 74.064 35.33 C 74.019 35.33 73.974 35.375 73.884 35.375 C 73.793 35.375 73.703 35.42 73.658 35.42 L 73.568 35.42 L 58.888 37.644 C 58.121 37.736 57.489 38.371 57.397 39.142 L 54.823 60.791 L 54.823 73.771 C 54.823 75.95 53.198 77.856 51.03 77.992 C 49.906 78.061 48.803 77.661 47.982 76.888 C 47.162 76.114 46.695 75.036 46.693 73.907 L 46.693 42.319 C 46.693 41.64 46.242 41.004 45.565 40.777 C 42.039 39.74 38.732 38.063 35.809 35.83 C 32.741 33.45 30.151 30.508 28.175 27.161 C 27.861 26.662 27.273 26.39 26.686 26.617 L 5.322 33.742 C 4.916 33.878 4.464 33.968 4.058 33.968 C 2.342 33.968 0.761 32.881 0.218 31.155 C -0.504 28.976 0.624 26.662 2.748 25.936 Z M 31.609 15.315 C 29.248 15.626 26.878 14.817 25.196 13.127 C 23.514 11.438 22.712 9.059 23.026 6.692 C 23.479 3.244 26.233 0.474 29.62 0.065 C 31.981 -0.245 34.352 0.563 36.034 2.254 C 37.716 3.944 38.517 6.323 38.202 8.69 C 37.78 12.154 35.062 14.885 31.609 15.317 Z" transform="translate(16.511 0) rotate(360 38.5 39)" fill="rgb(209, 230, 129)"></path></g></svg>