<svg xmlns="http://www.w3.org/2000/svg" viewBox="0 0 48 48" fill="none"><g><path d="M 7.2 48 C 3.224 48 0 44.776 0 40.8 L 0 7.2 C 0 3.224 3.224 0 7.2 0 L 40.8 0 C 44.776 0 48 3.224 48 7.2 L 48 40.8 C 48 44.776 44.776 48 40.8 48 Z" fill="rgba(255, 255, 255, 0.32)" stroke-width="1.5" stroke="rgb(255, 255, 255)" stroke-miterlimit="10"></path><g transform="translate(10.781 12.656)"><path d="M 26.621 11.974 C 26.621 13.64 25.406 15.053 23.769 15.291 L 23.769 20.115 C 23.769 21.174 22.918 22.031 21.867 22.031 L 4.754 22.031 C 3.704 22.031 2.853 21.174 2.853 20.115 L 2.853 15.291 C 1.095 15.036 -0.154 13.434 0.015 11.653 C 0.185 9.871 1.713 8.538 3.487 8.624 C 5.262 8.71 6.656 10.184 6.656 11.974 L 6.656 16.284 C 6.656 16.813 7.081 17.242 7.606 17.242 C 8.132 17.242 8.557 16.813 8.557 16.284 L 8.557 13.41 L 18.065 13.41 L 18.065 16.284 C 18.065 16.813 18.49 17.242 19.015 17.242 C 19.54 17.242 19.966 16.813 19.966 16.284 L 19.966 11.973 C 19.987 10.137 21.471 8.659 23.294 8.659 C 25.116 8.659 26.6 10.137 26.621 11.973 Z M 3.328 6.705 C 6.03 6.708 8.286 8.783 8.535 11.495 L 18.087 11.495 C 18.336 8.784 20.592 6.709 23.294 6.705 C 23.42 6.705 23.541 6.655 23.63 6.565 C 23.719 6.475 23.769 6.353 23.769 6.226 L 23.769 4.789 C 23.769 2.144 21.641 0 19.015 0 L 7.606 0 C 4.981 0 2.853 2.144 2.853 4.789 L 2.853 6.226 C 2.853 6.353 2.903 6.475 2.992 6.565 C 3.081 6.655 3.202 6.705 3.328 6.705 Z" fill="rgb(54, 100, 252)"></path></g></g></svg>